<svg width="15" height="8" viewBox="0 0 15 8" fill="none" xmlns="http://www.w3.org/2000/svg">
<path d="M1.63646 0.969584L1.27402 0.625153L0.585155 1.35005L0.947601 1.69448L1.63646 0.969584ZM6.70703 6.47786L7.0607 6.1242L7.05146 6.11542L6.70703 6.47786ZM8.29036 6.47786L7.95014 6.11147L7.94336 6.11777L7.93681 6.12431L8.29036 6.47786ZM14.1723 1.69843L14.5387 1.3582L13.8582 0.625409L13.4918 0.965634L14.1723 1.69843ZM7.4987 7.26953L7.14514 7.62308C7.34041 7.81835 7.65699 7.81835 7.85225 7.62308L7.4987 7.26953ZM0.947601 1.69448L6.3626 6.84031L7.05146 6.11542L1.63646 0.969584L0.947601 1.69448ZM8.63059 6.84426L14.1723 1.69843L13.4918 0.965634L7.95014 6.11147L8.63059 6.84426ZM6.35348 6.83142L7.14514 7.62308L7.85225 6.91598L7.06058 6.12431L6.35348 6.83142ZM7.85225 7.62308L8.64392 6.83142L7.93681 6.12431L7.14514 6.91598L7.85225 7.62308Z" fill="#5E5E5E"/>
</svg>
