<svg width="10" height="6" viewBox="0 0 10 6" fill="none" xmlns="http://www.w3.org/2000/svg">
<path d="M1.42443 0.637553L1.06198 0.293122L0.373123 1.01802L0.73557 1.36245L1.42443 0.637553ZM4.5 4.25L4.85367 3.89633L4.84443 3.88755L4.5 4.25ZM5.5 4.25L5.15977 3.8836L5.15299 3.8899L5.14645 3.89645L5.5 4.25ZM9.34023 1.3664L9.70662 1.02617L9.02617 0.293378L8.65977 0.633603L9.34023 1.3664ZM5 4.75L4.64645 5.10355C4.84171 5.29882 5.15829 5.29882 5.35355 5.10355L5 4.75ZM0.73557 1.36245L4.15557 4.61245L4.84443 3.88755L1.42443 0.637553L0.73557 1.36245ZM5.84023 4.6164L9.34023 1.3664L8.65977 0.633603L5.15977 3.8836L5.84023 4.6164ZM4.14645 4.60355L4.64645 5.10355L5.35355 4.39645L4.85355 3.89645L4.14645 4.60355ZM5.35355 5.10355L5.85355 4.60355L5.14645 3.89645L4.64645 4.39645L5.35355 5.10355Z" fill="white"/>
</svg>
